<svg width="199" height="31" viewBox="0 0 199 31" fill="none" xmlns="http://www.w3.org/2000/svg">
<path d="M43.5191 20.8306C41.6369 20.8306 40.1699 19.3913 40.1699 17.0662C40.1699 14.8241 41.6369 13.3847 43.5191 13.3847C45.3183 13.3847 46.813 14.8518 46.813 17.0662C46.813 19.3636 45.3183 20.8306 43.5191 20.8306ZM39.9761 22.2146C41.0003 23.9031 43.0486 24.5397 44.4602 24.5397C48.0586 24.5397 51.0481 21.495 51.0481 17.1215C51.0481 12.8865 48.2524 9.67565 44.3772 9.67565C42.8271 9.67565 41.194 10.3123 40.2806 11.724V4.47183H36.0732V24.2076H39.9761V22.2146ZM58.5555 10.0078H54.3759V24.2076H58.6109V18.4778C58.6109 15.5161 60.0779 13.6615 62.5137 13.6615C62.9289 13.6615 63.2334 13.7169 63.4549 13.7999V9.78637C63.2334 9.70333 62.9013 9.67565 62.5691 9.67565C60.6869 9.67565 59.3029 10.7275 58.5555 12.4713V10.0078ZM66.218 24.2076H70.4254V10.0078H66.218V24.2076ZM68.2663 3.72447C66.9654 3.72447 65.9412 4.66559 65.9412 5.96654C65.9412 7.2675 66.9654 8.23629 68.2663 8.23629C69.5673 8.23629 70.6191 7.2675 70.6191 5.96654C70.6191 4.66559 69.5673 3.72447 68.2663 3.72447ZM77.8059 17.0939L72.9342 24.2076H77.6398L80.2971 19.9726L82.9544 24.2076H87.6599L82.7883 17.0939L87.6599 10.0078H82.8713L80.2971 14.2705L77.7229 10.0078H72.9342L77.8059 17.0939Z" fill="#0B1A40"/>
<path fill-rule="evenodd" clip-rule="evenodd" d="M22.5776 7.95638C24.6241 7.95638 26.2832 6.29823 26.2832 4.25279C26.2832 2.20735 24.6241 0.549194 22.5776 0.549194C20.5311 0.549194 18.8721 2.20735 18.8721 4.25279C18.8721 6.29823 20.5311 7.95638 22.5776 7.95638Z" fill="#2D7EFF"/>
<path fill-rule="evenodd" clip-rule="evenodd" d="M22.5776 17.6734C24.6241 17.6734 26.2832 16.0152 26.2832 13.9698C26.2832 11.9243 24.6241 10.2662 22.5776 10.2662C20.5311 10.2662 18.8721 11.9243 18.8721 13.9698C18.8721 16.0152 20.5311 17.6734 22.5776 17.6734Z" fill="#3178F9"/>
<path fill-rule="evenodd" clip-rule="evenodd" d="M22.5776 27.3904C24.6241 27.3904 26.2832 25.7323 26.2832 23.6869C26.2832 21.6413 24.6241 19.9832 22.5776 19.9832C20.5311 19.9832 18.8721 21.6413 18.8721 23.6869C18.8721 25.7323 20.5311 27.3904 22.5776 27.3904Z" fill="#3572F3"/>
<path fill-rule="evenodd" clip-rule="evenodd" d="M13.1418 17.6734C15.1884 17.6734 16.8474 16.0152 16.8474 13.9698C16.8474 11.9243 15.1884 10.2662 13.1418 10.2662C11.0953 10.2662 9.43628 11.9243 9.43628 13.9698C9.43628 16.0152 11.0953 17.6734 13.1418 17.6734Z" fill="#3A6BED"/>
<path fill-rule="evenodd" clip-rule="evenodd" d="M13.1418 27.3903C15.1884 27.3903 16.8474 25.7322 16.8474 23.6867C16.8474 21.6414 15.1884 19.9832 13.1418 19.9832C11.0953 19.9832 9.43628 21.6414 9.43628 23.6867C9.43628 25.7322 11.0953 27.3903 13.1418 27.3903Z" fill="#3E65E7"/>
<path fill-rule="evenodd" clip-rule="evenodd" d="M3.70556 27.3904C5.75208 27.3904 7.4111 25.7323 7.4111 23.6869C7.4111 21.6413 5.75208 19.9832 3.70556 19.9832C1.65904 19.9832 0 21.6413 0 23.6869C0 25.7323 1.65904 27.3904 3.70556 27.3904Z" fill="#425FE1"/>
<path d="M99.7913 13.3847C101.591 13.3847 103.085 14.8518 103.085 17.1492C103.085 19.3636 101.591 20.8306 99.7913 20.8306C97.9091 20.8306 96.4421 19.3913 96.4421 17.1492C96.4421 14.8241 97.9091 13.3847 99.7913 13.3847ZM96.2483 10.0078H92.3455V29.7436H96.5528V22.6575C97.4386 23.9861 99.127 24.5397 100.649 24.5397C104.525 24.5397 107.32 21.3289 107.32 17.0939C107.32 12.7204 104.303 9.67565 100.677 9.67565C99.2931 9.67565 97.3555 10.2569 96.2483 11.9731V10.0078ZM109.912 20.1663C109.912 23.1557 111.656 24.5397 114.313 24.5397C115.171 24.5397 115.752 24.4013 116.278 24.1799V20.7199C115.918 20.8583 115.586 20.886 115.337 20.886C114.258 20.886 114.119 20.1663 114.119 19.3913V4.47183H109.912V20.1663ZM118.209 10.0078V18.6439C118.209 22.3253 120.313 24.5397 123.717 24.5397C125.627 24.5397 127.011 23.8201 127.925 22.3807V24.2076H131.966V10.0078H127.759V17.3983C127.759 19.2529 126.817 20.8306 124.963 20.8306C123.413 20.8306 122.416 19.8618 122.416 18.0073V10.0078H118.209ZM134.428 26.2282C134.428 28.5533 137.224 30.0757 141.348 30.0757C145.86 30.0757 148.766 28.0828 148.766 25.5085C148.766 23.045 146.773 21.3012 143.867 21.3012H140.324C139.743 21.3012 139.189 21.1074 139.189 20.5815C139.189 20.2494 139.466 19.9726 140.047 19.7511C140.296 19.7788 140.573 19.7788 140.822 19.7788C144.227 19.7788 146.856 17.5921 146.856 14.7134C146.856 14.1598 146.746 13.6339 146.524 13.1356H148.628V10.0078H142.815C142.179 9.78637 141.542 9.67565 140.878 9.67565C137.473 9.67565 134.899 11.9177 134.899 14.7134C134.899 16.4849 135.868 17.9519 137.335 18.8654C136.255 19.4466 135.535 20.3324 135.535 21.3289C135.535 22.2146 135.868 22.8789 136.67 23.4325C135.369 23.9585 134.428 24.8719 134.428 26.2282ZM140.878 12.7204C142.179 12.7204 143.147 13.5785 143.147 14.7134C143.147 15.8206 142.179 16.734 140.878 16.734C139.577 16.734 138.608 15.8206 138.608 14.7134C138.608 13.5785 139.577 12.7204 140.878 12.7204ZM138.497 25.5916C138.497 25.038 138.912 24.6781 139.355 24.4567H143.12C143.922 24.4567 144.67 24.8165 144.67 25.5639C144.67 26.422 143.59 26.9202 141.376 26.9202C139.632 26.9202 138.497 26.4497 138.497 25.5916ZM151.003 24.2076H155.21V10.0078H151.003V24.2076ZM153.051 3.72447C151.75 3.72447 150.726 4.66559 150.726 5.96654C150.726 7.2675 151.75 8.23629 153.051 8.23629C154.352 8.23629 155.404 7.2675 155.404 5.96654C155.404 4.66559 154.352 3.72447 153.051 3.72447ZM159.031 10.0078V24.2076H163.239V16.8171C163.239 14.9625 164.207 13.3847 166.034 13.3847C167.584 13.3847 168.581 14.3535 168.581 16.2081V24.2076H172.788V15.5715C172.788 11.89 170.684 9.67565 167.28 9.67565C165.37 9.67565 163.986 10.3953 163.073 11.8347V10.0078H159.031ZM181.118 24.5397C184.523 24.5397 186.821 22.6298 186.821 20.1663C186.821 17.4814 184.772 16.6787 182.336 15.7099C180.233 14.9071 179.43 14.6303 179.43 13.9937C179.43 13.3294 180.205 12.9142 181.118 12.9142C182.447 12.9142 183.278 13.5785 183.803 14.4643L186.488 12.5267C185.603 10.8382 183.582 9.67565 181.229 9.67565C178.101 9.67565 175.555 11.3364 175.555 13.9937C175.555 16.2911 177.105 17.4537 179.956 18.4225C182.087 19.1698 182.945 19.419 182.945 20.277C182.945 20.9137 182.281 21.2735 181.146 21.2735C179.679 21.2735 178.6 20.4154 177.852 19.2252L175.084 21.3012C176.219 23.3772 178.489 24.5397 181.118 24.5397Z" fill="#1066F9"/>
</svg>
