<svg width="116" height="116" viewBox="0 0 116 116" fill="none" xmlns="http://www.w3.org/2000/svg">
<g filter="url(#filter0_d)">
<circle cx="58" cy="56" r="39" fill="#7B8793"/>
</g>
<mask id="mask0" mask-type="alpha" maskUnits="userSpaceOnUse" x="19" y="17" width="78" height="78">
<circle cx="58" cy="56" r="39" fill="#7B8793"/>
</mask>
<g mask="url(#mask0)">
<path d="M57.9999 79.456L88.0606 61.4004L63.9216 38.4488C60.8703 35.5476 56.0926 35.5079 52.9936 38.3581L27.9395 61.4006L57.9999 79.456Z" fill="white"/>
<g filter="url(#filter1_d)">
<rect x="33.5757" y="32.0005" width="48.8485" height="58.2424" rx="4" fill="white"/>
</g>
<rect x="38.2728" y="36.7134" width="18.7879" height="3.75758" rx="1.87879" fill="#CDD8E4"/>
<rect x="38.2727" y="44.2287" width="39.4545" height="3.75758" rx="1.87879" fill="#CDD8E4"/>
<rect x="38.2727" y="50.8044" width="31.9394" height="3.75758" rx="1.87879" fill="#CDD8E4"/>
<rect x="38.2727" y="57.3802" width="39.4545" height="3.75758" rx="1.87879" fill="#CDD8E4"/>
<rect x="38.2727" y="63.956" width="39.4545" height="29.1212" rx="3.75758" fill="#9AA5B1"/>
<path d="M55.6564 77.6368L28.4081 61.9484C27.7819 61.5879 27 62.0399 27 62.7625V96.0165H89V62.7625C89 62.0399 88.2181 61.5879 87.5919 61.9484L60.3436 77.6368C58.8928 78.4721 57.1071 78.4721 55.6564 77.6368Z" fill="#F3F7FC" stroke="#E4EDF6" stroke-width="0.939394"/>
</g>
<defs>
<filter id="filter0_d" x="0" y="0" width="116" height="116" filterUnits="userSpaceOnUse" color-interpolation-filters="sRGB">
<feFlood flood-opacity="0" result="BackgroundImageFix"/>
<feColorMatrix in="SourceAlpha" type="matrix" values="0 0 0 0 0 0 0 0 0 0 0 0 0 0 0 0 0 0 127 0"/>
<feOffset dy="2"/>
<feGaussianBlur stdDeviation="9.5"/>
<feColorMatrix type="matrix" values="0 0 0 0 0.0622569 0 0 0 0 0.197977 0 0 0 0 0.679167 0 0 0 0.24 0"/>
<feBlend mode="normal" in2="BackgroundImageFix" result="effect1_dropShadow"/>
<feBlend mode="normal" in="SourceGraphic" in2="effect1_dropShadow" result="shape"/>
</filter>
<filter id="filter1_d" x="24.1817" y="25.4247" width="67.6364" height="77.0303" filterUnits="userSpaceOnUse" color-interpolation-filters="sRGB">
<feFlood flood-opacity="0" result="BackgroundImageFix"/>
<feColorMatrix in="SourceAlpha" type="matrix" values="0 0 0 0 0 0 0 0 0 0 0 0 0 0 0 0 0 0 127 0"/>
<feOffset dy="2.81818"/>
<feGaussianBlur stdDeviation="4.69697"/>
<feColorMatrix type="matrix" values="0 0 0 0 0 0 0 0 0 0 0 0 0 0 0 0 0 0 0.22 0"/>
<feBlend mode="normal" in2="BackgroundImageFix" result="effect1_dropShadow"/>
<feBlend mode="normal" in="SourceGraphic" in2="effect1_dropShadow" result="shape"/>
</filter>
</defs>
</svg>
