<svg width="54" height="54" viewBox="0 0 54 54" fill="none" xmlns="http://www.w3.org/2000/svg">
<rect x="0.899902" y="0.900024" width="52.2" height="52.2" rx="5.5" fill="white" stroke="#D9E0E9"/>
<path d="M1.3999 6.40002C1.3999 3.6386 3.63848 1.40002 6.3999 1.40002H47.5999C50.3613 1.40002 52.5999 3.6386 52.5999 6.40002V11.3547H1.3999V6.40002Z" fill="#1066F9"/>
<rect opacity="0.6" x="7.80005" y="4.91833" width="29.6" height="2.91794" rx="1.45897" fill="white"/>
<rect x="39" y="4.91833" width="7.2" height="2.91794" rx="1.45897" fill="white"/>
<rect x="31" y="20.4109" width="18" height="18" rx="3.95" fill="#D9E0E9"/>
<rect x="4.6001" y="20.9056" width="21.8013" height="2.4" rx="1.2" fill="#D9E0E9"/>
<rect x="4.6001" y="25.7057" width="17.0322" height="2.4" rx="1.2" fill="#D9E0E9"/>
<rect x="4.6001" y="30.5055" width="21.8013" height="2.4" rx="1.2" fill="#D9E0E9"/>
<rect x="4.6001" y="37.4813" width="10.4" height="4.08689" rx="2.04344" fill="#1066F9"/>
</svg>
